HIERARCHY
ROOT Hips
{
    OFFSET 0.0 0.0 0.0
    CHANNELS 6 Xposition Yposition Zposition Zrotation Xrotation Yrotation
    JOINT LeftHipJoint
    {
        OFFSET 0.1 0.0 0.0
        CHANNELS 3 Zrotation Xrotation Yrotation
        JOINT LeftUpLeg
        {
            OFFSET 123.97552323086671 0.0 0.0
            CHANNELS 3 Zrotation Xrotation Yrotation
            JOINT LeftLeg
            {
                OFFSET 0.0 0.0 -410.4929110881588
                CHANNELS 3 Zrotation Xrotation Yrotation
                JOINT LeftFoot
                {
                    OFFSET 0.0 0.0 -408.98201641238404
                    CHANNELS 3 Zrotation Xrotation Yrotation
                    End Site
                    {
                        OFFSET 0.0 -0.1 0.0
                    }
                }
            }
        }
    }
    JOINT LowerBack
    {
        OFFSET 0.0 0.0 0.1
        CHANNELS 3 Zrotation Xrotation Yrotation
        JOINT Spine
        {
            OFFSET 0.0 0.0 220.85087237975543
            CHANNELS 3 Zrotation Xrotation Yrotation
            JOINT Spine1
            {
                OFFSET 0.0 0.0 251.7691968667506
                CHANNELS 3 Zrotation Xrotation Yrotation
                JOINT LeftShoulder
                {
                    OFFSET 0.1 0.0 0.0
                    CHANNELS 3 Zrotation Xrotation Yrotation
                    JOINT LeftArm
                    {
                        OFFSET 142.39313577982597 0.0 0.0
                        CHANNELS 3 Zrotation Xrotation Yrotation
                        JOINT LeftForeArm
                        {
                            OFFSET 263.415456754332 0.0 0.0
                            CHANNELS 3 Zrotation Xrotation Yrotation
                            JOINT LeftHand
                            {
                                OFFSET 238.0282159015557 0.0 0.0
                                CHANNELS 3 Zrotation Xrotation Yrotation
                                End Site
                                {
                                    OFFSET 0.1 0.0 0.0
                                }
                            }
                        }
                    }
                }
                JOINT Neck
                {
                    OFFSET 0.0 0.0 0.1
                    CHANNELS 3 Zrotation Xrotation Yrotation
                    JOINT Neck1
                    {
                        OFFSET 0.0 0.0 103.29535183309531
                        CHANNELS 3 Zrotation Xrotation Yrotation
                        End Site
                        {
                            OFFSET 0.0 0.0 114.43597945440928
                        }
                    }
                }
                JOINT RightShoulder
                {
                    OFFSET -0.1 0.0 0.0
                    CHANNELS 3 Zrotation Xrotation Yrotation
                    JOINT RightArm
                    {
                        OFFSET -142.39313577982597 0.0 0.0
                        CHANNELS 3 Zrotation Xrotation Yrotation
                        JOINT RightForeArm
                        {
                            OFFSET -263.415456754332 0.0 0.0
                            CHANNELS 3 Zrotation Xrotation Yrotation
                            JOINT RightHand
                            {
                                OFFSET -238.0282159015557 0.0 0.0
                                CHANNELS 3 Zrotation Xrotation Yrotation
                                End Site
                                {
                                    OFFSET -0.1 0.0 0.0
                                }
                            }
                        }
                    }
                }
            }
        }
    }
    JOINT RightHipJoint
    {
        OFFSET -0.1 0.0 0.0
        CHANNELS 3 Zrotation Xrotation Yrotation
        JOINT RightUpLeg
        {
            OFFSET -123.97552323086671 0.0 0.0
            CHANNELS 3 Zrotation Xrotation Yrotation
            JOINT RightLeg
            {
                OFFSET 0.0 0.0 -410.4929110881588
                CHANNELS 3 Zrotation Xrotation Yrotation
                JOINT RightFoot
                {
                    OFFSET 0.0 0.0 -408.98201641238404
                    CHANNELS 3 Zrotation Xrotation Yrotation
                    End Site
                    {
                        OFFSET 0.0 -0.1 0.0
                    }
                }
            }
        }
    }
}
MOTION
Frames: 7
Frame Time: 0.03333333333333333
0.0 0.0 830.0663109586695 27.90922172478071 2.0912464406793627 3.3336541441665073 -1.8103912550596355e-33 -1.987846675914698e-16 -1.0436195048552165e-15 -0.23003727692988718 -17.908564225143305 1.1223495979382907 1.0447453546309515 29.130810840877068 -1.2599181271853586 0.0 0.0 0.0 -1.8103912550596355e-33 -1.987846675914698e-16 -1.0436195048552165e-15 0.0023238896352749307 0.18557348186692219 3.7951604317078425 7.407366623588579 -3.8522357510723876e-17 -5.951084981722882e-16 0.0 0.0 1.987846675914698e-16 -31.89459728841767 22.53496317676202 75.60054455715782 -57.45310103574345 6.496846270112922e-15 -1.1853688857046228e-14 -3.1805546814635168e-15 -4.4139062980501586e-32 1.5902773407317584e-15 0.0 0.0 1.987846675914698e-16 -10.75682571205242 -2.805072823730083 1.1322493818867558 0.0 0.0 1.987846675914698e-16 22.278008604806026 -35.84351681900583 -21.114992869466803 94.25099309874635 -6.658921834538704e-15 2.4976790046763724e-15 0.0 0.0 0.0 -1.8103912550596355e-33 -1.987846675914698e-16 -1.0436195048552165e-15 -0.1751930784514824 -13.598040374132195 -2.8314333341303835 -1.1719539749463834 29.258412651192128 -1.041353674531418 0.0 0.0 7.951386703658792e-16
0.0 0.0 830.0663109586695 27.90737139714564 2.3255834251041025 3.4380043814391037 0.0 0.0 -2.4848083448933725e-16 -0.24081098445813107 -18.287328706098197 1.031493379812157 1.0169257524731665 29.42421382744198 -1.2996070862375233 0.0 0.0 7.951386703658792e-16 0.0 0.0 -2.4848083448933725e-16 0.0026815352015740392 0.2092629267691607 3.696760661008556 7.457896424280342 1.7453146607630748e-16 2.6779115414827882e-15 0.0 0.0 -5.466578358765419e-16 -32.1274379417876 22.179576260348533 75.47210079887336 -57.48118881737064 -5.847435096685391e-15 4.048103654669598e-15 0.0 0.0 2.3854160110976376e-15 0.0 0.0 -5.466578358765419e-16 -10.765645451702548 -2.8260615699720675 1.1190604489282412 0.0 0.0 -5.466578358765419e-16 21.52283112609478 -33.88548446346771 -22.109212302726426 93.49412501617034 4.3587614708787275e-15 -4.633023933361567e-15 0.0 0.0 0.0 0.0 0.0 -2.4848083448933725e-16 -0.18394310670249137 -13.945202155277729 -2.9183851495340787 -1.2083396722079647 29.214921072500292 -1.1314606257191693 0.0 0.0 0.0
0.0 0.0 830.0663109586695 27.928814281033706 2.6107357381217913 3.5390929522217567 5.17254644302753e-34 1.987846675914698e-16 -2.981770013872047e-16 -0.26658355807004247 -18.60539315746244 0.9995235924990312 1.0330255292237542 29.322456129902466 -1.546598517242653 0.0 0.0 -3.975693351829396e-16 5.17254644302753e-34 1.987846675914698e-16 -2.981770013872047e-16 0.0046397279037167566 0.33340361210211444 3.618491419290562 7.471358388636197 -5.294780854941334e-16 -2.0073104317857726e-15 0.0 0.0 3.975693351829396e-16 -32.21996686966323 21.612964172474992 75.1785534307481 -57.50028209832977 6.536167557722217e-16 -7.803883592953062e-15 0.0 0.0 -7.951386703658792e-16 0.0 0.0 3.975693351829396e-16 -10.783741327476214 -2.9698468984543074 1.052569064152375 0.0 0.0 3.975693351829396e-16 21.029409026841414 -31.789540652236425 -23.04129955007161 92.63189344017745 -3.346773233678311e-15 1.2016734267507088e-15 0.0 0.0 3.1805546814635168e-15 5.17254644302753e-34 1.987846675914698e-16 -2.981770013872047e-16 -0.20469179813445726 -14.28677076482957 -3.0627556255433825 -1.2509166605586073 29.19150029726633 -1.0980832520113974 0.0 0.0 0.0
0.0 0.0 830.0663109586695 28.09275750014661 2.670460791382357 3.653831883335086 0.0 0.0 4.969616689786745e-17 -0.27484032064916586 -18.75128095014032 0.8243013665173865 0.9442136009415126 29.293071202565436 -1.501755116137417 -6.896728590703373e-34 1.987846675914698e-16 3.975693351829396e-16 0.0 0.0 4.969616689786745e-17 0.006025167459019257 0.4236294742207642 3.4765813739981 7.313394682820131 2.668093324507251e-16 -2.0587508330761434e-15 0.0 0.0 -2.1866313435061676e-15 -32.33520582156247 21.066982900469544 74.87380893976503 -57.738997178173285 5.276742795749772e-15 -1.6158347109259954e-14 0.0 0.0 -7.951386703658792e-16 0.0 0.0 -2.1866313435061676e-15 -10.545895882989562 -2.81465922249188 1.260286008138443 0.0 0.0 -2.1866313435061676e-15 20.164651776512013 -29.285465820270197 -24.47791122260398 91.78932784522358 -1.1419169053731576e-15 -1.1068007054876072e-15 0.0 0.0 0.0 0.0 0.0 4.969616689786745e-17 -0.21020765349697043 -14.3581230925153 -3.1876497714495073 -1.2989865726864884 28.975687537091385 -1.1088778016780343 0.0 0.0 7.951386703658792e-16
0.0 0.0 830.0663109586695 28.236770068542782 2.864113674655803 3.703622428124877 -3.103527865816518e-33 -5.963540027744094e-16 -5.963540027744094e-16 -0.2883632201477173 -18.859609903470883 0.8009121966879073 0.9309364856708136 28.752646240093238 -1.6580483942144384 0.0 0.0 -7.951386703658792e-16 -3.103527865816518e-33 -5.963540027744094e-16 -5.963540027744094e-16 0.007547971354733598 0.5091762705839438 3.414024289281007 7.312426366216968 4.4367506142096024e-17 6.9433024509199325e-16 0.0 0.0 5.963540027744094e-16 -32.233787914796 20.78260819127005 74.74441464127078 -58.108362368541314 4.556502118433722e-15 -1.4751096361682352e-14 -3.1805546814635176e-15 -3.1805546814635176e-15 2.3854160110976384e-15 0.0 0.0 5.963540027744094e-16 -10.20583141829442 -2.8760830849149857 1.4070610460742607 0.0 0.0 5.963540027744094e-16 19.09623328511303 -26.765336815021353 -25.984084947635044 90.22048389654444 -4.497975240398338e-15 8.654497240666641e-18 0.0 0.0 0.0 -3.103527865816518e-33 -5.963540027744094e-16 -5.963540027744094e-16 -0.22203493490549722 -14.550600431634312 -3.194932013761007 -1.2684293220741802 28.700498595990013 -1.2661844395060788 0.0 0.0 -7.951386703658792e-16
0.0 0.0 830.0663109586695 28.41087013227288 3.305265621443457 3.7490205401206076 0.0 0.0 -1.987846675914698e-16 -0.3033129986053315 -19.353558501843935 0.7954768212661529 0.928660307539114 28.445512840777265 -1.7620540161958578 0.0 0.0 0.0 0.0 0.0 -1.987846675914698e-16 0.007540824357960992 0.4975219552737655 3.308899243799375 7.3668806545684555 3.1926749394372305e-17 4.95935059364811e-16 -6.361109362927033e-15 5.517382872562698e-33 -9.939233379573489e-17 -32.17462892243027 20.494115703351145 74.5854578140247 -58.56979533047731 1.5043111815392522e-15 -9.184480500786797e-15 0.0 0.0 -7.951386703658792e-16 -6.361109362927033e-15 5.517382872562698e-33 -9.939233379573489e-17 -9.838780202489849 -3.0442482767366994 1.6179366624120721 -6.361109362927033e-15 5.517382872562698e-33 -9.939233379573489e-17 18.262429513148184 -24.352756517438912 -27.607534856481788 88.07676426045947 5.125570755917573e-15 -3.8502574275380275e-15 0.0 0.0 0.0 0.0 0.0 -1.987846675914698e-16 -0.232379804109177 -14.886483246804735 -3.2363120556822715 -1.2688070680169223 28.49621661119861 -1.427603507306869 0.0 0.0 7.951386703658792e-16
0.0 0.0 830.0663109586695 28.438317562736387 3.743276510791478 3.741347835763848 0.0 0.0 9.93923337957349e-17 -0.34211247705016257 -19.850455459035018 0.812737034330384 0.9705701805889347 28.02448950650982 -1.8820168933241843 0.0 0.0 -3.975693351829396e-16 0.0 0.0 9.93923337957349e-17 0.00967880189300698 0.5824858421075183 3.2978767430396387 7.389191573900062 -5.504549411402026e-16 -2.354839756767561e-15 0.0 0.0 3.975693351829396e-16 -31.823784886337894 20.114200261503402 74.31089549831208 -59.15539427227287 9.045817536694183e-15 -9.494417437794032e-15 0.0 0.0 0.0 0.0 0.0 3.975693351829396e-16 -9.33220913901212 -3.2464043089443506 1.8662455045426882 0.0 0.0 3.975693351829396e-16 17.167868374812244 -21.66443222898754 -29.62752625802166 86.15427181865367 -1.7649634403967485e-15 -1.887590316196848e-15 0.0 0.0 0.0 0.0 0.0 9.93923337957349e-17 -0.26367928109163125 -15.401565428624966 -3.1290830719598075 -1.156031843523748 28.368246781698208 -1.6723053261080725 0.0 -3.2799470152592518e-15 0.0
